<?xml version="1.0" encoding="UTF-8" standalone="no"?>
<svg
   fill="#000000"
   height="800px"
   width="800px"
   version="1.1"
   id="Capa_1"
   viewBox="0 0 30.34 30.34"
   xml:space="preserve"
   sodipodi:docname="paper-clip-svgrepo-com.svg"
   inkscape:version="1.3.2 (091e20e, 2023-11-25, custom)"
   xmlns:inkscape="http://www.inkscape.org/namespaces/inkscape"
   xmlns:sodipodi="http://sodipodi.sourceforge.net/DTD/sodipodi-0.dtd"
   xmlns="http://www.w3.org/2000/svg"
   xmlns:svg="http://www.w3.org/2000/svg"><defs
   id="defs16" /><sodipodi:namedview
   id="namedview16"
   pagecolor="#ffffff"
   bordercolor="#000000"
   borderopacity="0.25"
   inkscape:showpageshadow="2"
   inkscape:pageopacity="0.0"
   inkscape:pagecheckerboard="0"
   inkscape:deskcolor="#d1d1d1"
   showgrid="false"
   inkscape:zoom="1.02625"
   inkscape:cx="400"
   inkscape:cy="400"
   inkscape:window-width="2560"
   inkscape:window-height="1017"
   inkscape:window-x="-8"
   inkscape:window-y="-8"
   inkscape:window-maximized="1"
   inkscape:current-layer="Capa_1" />
<path
   d="M22.562,12.491c0,0,1.227-0.933,0.293-1.866c-0.934-0.933-1.842,0.271-1.842,0.271l-9.389,9.391   c0,0-2.199,2.838-3.871,1.122c-1.67-1.718,1.121-3.872,1.121-3.872l12.311-12.31c0,0,2.873-3.165,5.574-0.466   c2.697,2.7-0.477,5.579-0.477,5.579L12.449,24.173c0,0-4.426,5.113-8.523,1.015s1.066-8.474,1.066-8.474L15.494,6.209   c0,0,1.176-0.982,0.295-1.866c-0.885-0.883-1.865,0.295-1.865,0.295L1.873,16.689c0,0-4.549,4.989,0.531,10.068   c5.08,5.082,10.072,0.533,10.072,0.533l16.563-16.565c0,0,3.314-3.655-0.637-7.608s-7.607-0.639-7.607-0.639L6.543,16.728   c0,0-3.65,2.969-0.338,6.279c3.312,3.314,6.227-0.39,6.227-0.39L22.562,12.491z"
   id="path1" />
</svg>
